<svg width="294" height="35" viewBox="0 0 294 35" fill="none" xmlns="http://www.w3.org/2000/svg">
<circle cx="11" cy="13" r="11" fill="white"/>
<circle cx="29.5" cy="25.5" r="7.5" fill="white"/>
<circle cx="29.5" cy="10.5" r="5.5" fill="white"/>
<path d="M51.78 28V8.4H62.168C63.456 8.4 64.604 8.68 65.612 9.24C66.6387 9.8 67.4507 10.5653 68.048 11.536C68.6453 12.5067 68.944 13.5987 68.944 14.812C68.944 16.1187 68.6267 17.2853 67.992 18.312C67.376 19.32 66.536 20.1227 65.472 20.72C64.408 21.3173 63.204 21.616 61.86 21.616H56.54V28H51.78ZM56.456 17.444H61.076C61.6173 17.444 62.1027 17.332 62.532 17.108C62.98 16.884 63.3347 16.5853 63.596 16.212C63.8573 15.82 63.988 15.3813 63.988 14.896C63.988 14.4107 63.8573 14 63.596 13.664C63.3347 13.328 62.98 13.0667 62.532 12.88C62.1027 12.6933 61.6173 12.6 61.076 12.6H56.456V17.444ZM75.687 28V13.132H79.943L80.139 18.396L78.991 18.004C79.2523 17.0333 79.691 16.1653 80.307 15.4C80.9416 14.616 81.679 13.9907 82.519 13.524C83.3776 13.0573 84.2736 12.824 85.207 12.824C85.7483 12.824 86.2616 12.88 86.747 12.992C87.251 13.104 87.6803 13.244 88.035 13.412L86.803 18.284C86.4856 18.06 86.0563 17.892 85.515 17.78C84.9923 17.6493 84.4696 17.584 83.947 17.584C83.3496 17.584 82.8176 17.6773 82.351 17.864C81.903 18.0507 81.511 18.312 81.175 18.648C80.8576 18.9653 80.615 19.3293 80.447 19.74C80.279 20.132 80.195 20.5613 80.195 21.028V28H75.687ZM101.158 28.28C99.3658 28.28 97.7698 27.9533 96.3698 27.3C94.9698 26.628 93.8684 25.7133 93.0658 24.556C92.2818 23.38 91.8898 22.0453 91.8898 20.552C91.8898 19.04 92.2818 17.7053 93.0658 16.548C93.8684 15.3907 94.9698 14.4853 96.3698 13.832C97.7698 13.16 99.3658 12.824 101.158 12.824C102.987 12.824 104.592 13.16 105.974 13.832C107.355 14.4853 108.438 15.3907 109.222 16.548C110.024 17.7053 110.426 19.04 110.426 20.552C110.426 22.0453 110.024 23.38 109.222 24.556C108.438 25.7133 107.355 26.628 105.974 27.3C104.592 27.9533 102.987 28.28 101.158 28.28ZM101.186 24.416C102.063 24.416 102.856 24.2573 103.566 23.94C104.294 23.604 104.863 23.1467 105.274 22.568C105.703 21.9893 105.908 21.3173 105.89 20.552C105.908 19.7867 105.703 19.1147 105.274 18.536C104.863 17.9387 104.294 17.4813 103.566 17.164C102.856 16.828 102.063 16.66 101.186 16.66C100.29 16.66 99.4778 16.828 98.7498 17.164C98.0218 17.4813 97.4524 17.9387 97.0418 18.536C96.6311 19.1147 96.4258 19.7867 96.4258 20.552C96.4258 21.3173 96.6311 21.9893 97.0418 22.568C97.4524 23.1467 98.0218 23.604 98.7498 23.94C99.4778 24.2573 100.29 24.416 101.186 24.416ZM126.579 28.28C124.974 28.28 123.49 28.0373 122.127 27.552C120.765 27.0667 119.57 26.376 118.543 25.48C117.517 24.5653 116.723 23.492 116.163 22.26C115.603 21.0093 115.323 19.628 115.323 18.116C115.323 16.6413 115.613 15.288 116.191 14.056C116.789 12.824 117.591 11.7507 118.599 10.836C119.626 9.92133 120.821 9.22133 122.183 8.736C123.565 8.25067 125.049 8.008 126.635 8.008C127.737 8.008 128.81 8.13867 129.855 8.4C130.901 8.66133 131.862 9.02533 132.739 9.492C133.635 9.95867 134.391 10.4907 135.007 11.088L132.207 14.672C131.741 14.2427 131.218 13.86 130.639 13.524C130.079 13.1693 129.454 12.8987 128.763 12.712C128.073 12.5067 127.298 12.404 126.439 12.404C125.637 12.404 124.862 12.5347 124.115 12.796C123.387 13.0573 122.725 13.4307 122.127 13.916C121.549 14.4013 121.082 15.008 120.727 15.736C120.391 16.4453 120.223 17.2573 120.223 18.172C120.223 19.068 120.401 19.88 120.755 20.608C121.11 21.3173 121.595 21.924 122.211 22.428C122.846 22.9133 123.565 23.2867 124.367 23.548C125.189 23.7907 126.057 23.912 126.971 23.912C127.849 23.912 128.633 23.8 129.323 23.576C130.014 23.3333 130.639 23.0347 131.199 22.68C131.759 22.3067 132.254 21.952 132.683 21.616L134.951 25.284C134.429 25.7693 133.729 26.2453 132.851 26.712C131.993 27.16 131.022 27.5333 129.939 27.832C128.875 28.1307 127.755 28.28 126.579 28.28ZM141.175 28V13.132H145.431L145.627 18.396L144.479 18.004C144.741 17.0333 145.179 16.1653 145.795 15.4C146.43 14.616 147.167 13.9907 148.007 13.524C148.866 13.0573 149.762 12.824 150.695 12.824C151.237 12.824 151.75 12.88 152.235 12.992C152.739 13.104 153.169 13.244 153.523 13.412L152.291 18.284C151.974 18.06 151.545 17.892 151.003 17.78C150.481 17.6493 149.958 17.584 149.435 17.584C148.838 17.584 148.306 17.6773 147.839 17.864C147.391 18.0507 146.999 18.312 146.663 18.648C146.346 18.9653 146.103 19.3293 145.935 19.74C145.767 20.132 145.683 20.5613 145.683 21.028V28H141.175ZM166.506 28.28C164.621 28.28 162.969 27.9533 161.55 27.3C160.15 26.628 159.058 25.7133 158.274 24.556C157.509 23.3987 157.126 22.092 157.126 20.636C157.126 19.46 157.35 18.396 157.798 17.444C158.265 16.4733 158.899 15.652 159.702 14.98C160.505 14.2893 161.438 13.7573 162.502 13.384C163.585 13.0107 164.733 12.824 165.946 12.824C167.141 12.824 168.242 13.0107 169.25 13.384C170.277 13.7573 171.163 14.28 171.91 14.952C172.675 15.6053 173.254 16.3893 173.646 17.304C174.057 18.2187 174.243 19.2267 174.206 20.328L174.178 21.644H160.15L159.506 18.956H170.538L170.062 19.544V18.984C170.006 18.48 169.791 18.0413 169.418 17.668C169.045 17.2947 168.559 17.0053 167.962 16.8C167.383 16.576 166.73 16.464 166.002 16.464C165.106 16.464 164.303 16.604 163.594 16.884C162.885 17.164 162.325 17.5933 161.914 18.172C161.522 18.732 161.326 19.4413 161.326 20.3C161.326 21.1027 161.559 21.8213 162.026 22.456C162.493 23.072 163.165 23.5667 164.042 23.94C164.919 24.2947 165.946 24.472 167.122 24.472C168.205 24.472 169.101 24.3507 169.81 24.108C170.519 23.8467 171.117 23.548 171.602 23.212L173.59 26.124C172.955 26.5907 172.255 26.9827 171.49 27.3C170.725 27.6173 169.913 27.86 169.054 28.028C168.214 28.196 167.365 28.28 166.506 28.28ZM186.674 28.252C185.144 28.252 183.8 27.9253 182.642 27.272C181.485 26.6 180.58 25.6853 179.926 24.528C179.273 23.3707 178.946 22.0547 178.946 20.58C178.946 19.068 179.273 17.7333 179.926 16.576C180.598 15.4 181.513 14.4853 182.67 13.832C183.846 13.16 185.218 12.824 186.786 12.824C187.664 12.824 188.476 12.936 189.222 13.16C189.969 13.384 190.632 13.6827 191.21 14.056C191.789 14.4107 192.256 14.812 192.61 15.26C192.984 15.708 193.217 16.156 193.31 16.604L192.274 16.66V13.132H196.726V28H192.19V24.108L193.142 24.304C193.068 24.7893 192.844 25.2653 192.47 25.732C192.097 26.1987 191.621 26.628 191.042 27.02C190.464 27.3933 189.801 27.692 189.054 27.916C188.308 28.14 187.514 28.252 186.674 28.252ZM187.85 24.472C188.784 24.472 189.577 24.3133 190.23 23.996C190.902 23.66 191.416 23.2027 191.77 22.624C192.144 22.0267 192.33 21.3453 192.33 20.58C192.33 19.7773 192.144 19.0867 191.77 18.508C191.416 17.9293 190.902 17.472 190.23 17.136C189.577 16.8 188.784 16.632 187.85 16.632C186.954 16.632 186.17 16.8 185.498 17.136C184.845 17.472 184.332 17.9293 183.958 18.508C183.585 19.0867 183.398 19.7773 183.398 20.58C183.398 21.3453 183.585 22.0267 183.958 22.624C184.332 23.2027 184.845 23.66 185.498 23.996C186.17 24.3133 186.954 24.472 187.85 24.472ZM206.399 28V8.904H210.879V28H206.399ZM202.815 17.052V13.132H215.023V17.052H202.815ZM221.927 28V13.132H226.435V28H221.927ZM224.167 10.024C223.327 10.024 222.673 9.828 222.207 9.436C221.74 9.02533 221.507 8.44667 221.507 7.7C221.507 7.028 221.74 6.47733 222.207 6.048C222.673 5.61867 223.327 5.404 224.167 5.404C225.007 5.404 225.66 5.60933 226.127 6.02C226.612 6.412 226.855 6.972 226.855 7.7C226.855 8.39067 226.612 8.95067 226.127 9.38C225.641 9.80933 224.988 10.024 224.167 10.024ZM239.782 28L232.362 13.132H237.486L242.442 24.612L241.182 24.696L246.25 13.132H251.29L243.618 28H239.782ZM263.713 28.28C261.828 28.28 260.176 27.9533 258.757 27.3C257.357 26.628 256.265 25.7133 255.481 24.556C254.716 23.3987 254.333 22.092 254.333 20.636C254.333 19.46 254.557 18.396 255.005 17.444C255.472 16.4733 256.106 15.652 256.909 14.98C257.712 14.2893 258.645 13.7573 259.709 13.384C260.792 13.0107 261.94 12.824 263.153 12.824C264.348 12.824 265.449 13.0107 266.457 13.384C267.484 13.7573 268.37 14.28 269.117 14.952C269.882 15.6053 270.461 16.3893 270.853 17.304C271.264 18.2187 271.45 19.2267 271.413 20.328L271.385 21.644H257.357L256.713 18.956H267.745L267.269 19.544V18.984C267.213 18.48 266.998 18.0413 266.625 17.668C266.252 17.2947 265.766 17.0053 265.169 16.8C264.59 16.576 263.937 16.464 263.209 16.464C262.313 16.464 261.51 16.604 260.801 16.884C260.092 17.164 259.532 17.5933 259.121 18.172C258.729 18.732 258.533 19.4413 258.533 20.3C258.533 21.1027 258.766 21.8213 259.233 22.456C259.7 23.072 260.372 23.5667 261.249 23.94C262.126 24.2947 263.153 24.472 264.329 24.472C265.412 24.472 266.308 24.3507 267.017 24.108C267.726 23.8467 268.324 23.548 268.809 23.212L270.797 26.124C270.162 26.5907 269.462 26.9827 268.697 27.3C267.932 27.6173 267.12 27.86 266.261 28.028C265.421 28.196 264.572 28.28 263.713 28.28ZM283.993 28.28C282.257 28.28 280.708 28.0467 279.345 27.58C277.983 27.1133 276.881 26.432 276.041 25.536L278.785 23.128C279.42 23.7253 280.204 24.192 281.137 24.528C282.089 24.8453 283.107 25.004 284.189 25.004C284.525 25.004 284.852 24.9853 285.169 24.948C285.487 24.9107 285.767 24.836 286.009 24.724C286.271 24.612 286.467 24.4813 286.597 24.332C286.747 24.164 286.821 23.9773 286.821 23.772C286.821 23.3987 286.569 23.1093 286.065 22.904C285.748 22.792 285.319 22.6893 284.777 22.596C284.236 22.484 283.657 22.372 283.041 22.26C281.94 22.0547 280.979 21.8307 280.157 21.588C279.336 21.3453 278.655 21.0187 278.113 20.608C277.609 20.216 277.217 19.768 276.937 19.264C276.676 18.76 276.545 18.1533 276.545 17.444C276.545 16.716 276.732 16.072 277.105 15.512C277.497 14.952 278.02 14.4667 278.673 14.056C279.345 13.6453 280.111 13.3373 280.969 13.132C281.828 12.9267 282.743 12.824 283.713 12.824C284.628 12.824 285.533 12.908 286.429 13.076C287.325 13.244 288.184 13.496 289.005 13.832C289.827 14.168 290.545 14.588 291.161 15.092L288.865 17.808C288.436 17.4907 287.923 17.2013 287.325 16.94C286.747 16.66 286.121 16.4453 285.449 16.296C284.796 16.128 284.143 16.044 283.489 16.044C283.135 16.044 282.808 16.0627 282.509 16.1C282.211 16.1373 281.931 16.2027 281.669 16.296C281.427 16.3893 281.231 16.5107 281.081 16.66C280.951 16.8093 280.885 16.9867 280.885 17.192C280.885 17.3413 280.932 17.4907 281.025 17.64C281.119 17.7707 281.259 17.892 281.445 18.004C281.725 18.172 282.145 18.3307 282.705 18.48C283.284 18.6107 283.965 18.7507 284.749 18.9C286 19.1053 287.064 19.3667 287.941 19.684C288.819 20.0013 289.509 20.3653 290.013 20.776C290.461 21.112 290.779 21.4947 290.965 21.924C291.152 22.3533 291.245 22.8387 291.245 23.38C291.245 24.3507 290.937 25.2093 290.321 25.956C289.705 26.684 288.847 27.2533 287.745 27.664C286.663 28.0747 285.412 28.28 283.993 28.28Z" fill="white"/>
</svg>
