<svg width="555" height="110" viewBox="0 0 555 110" fill="none" xmlns="http://www.w3.org/2000/svg">
<rect width="110" height="110" fill="#1D1D1D"/>
<line x1="42.5" y1="40.2368" x2="42.5" y2="88" stroke="white" stroke-width="5"/>
<line x1="68.3334" y1="42.7368" x2="40" y2="42.7368" stroke="white" stroke-width="5"/>
<line x1="77.5" y1="52.3948" x2="77.5" y2="22.8685" stroke="white" stroke-width="5"/>
<line x1="80" y1="24.5" x2="30" y2="24.5" stroke="white" stroke-width="5"/>
<line x1="80" y1="54.8948" x2="51.6667" y2="54.8948" stroke="white" stroke-width="5"/>
<path d="M131.031 81.4062V28.6719L137.711 25.5078H138.062V67.5195C142.586 66.1367 146.945 63.7812 151.141 60.4531C155.852 56.7266 158.207 52.0977 158.207 46.5664C158.207 42.2539 156.402 38.5508 152.793 35.457C149.512 32.6445 144.73 30.6055 138.449 29.3398L146.5 25.5078H146.852C151.469 26.4219 155.43 28.5195 158.734 31.8008C162.742 35.7617 164.746 40.6719 164.746 46.5312C164.746 53.1641 160.973 59 153.426 64.0391C148.785 67.1328 143.664 69.4648 138.062 71.0352V78.2422L131.383 81.4062H131.031ZM171.461 81.4062V51.207L186.051 39.9219C190.48 40.2266 193.891 41.3516 196.281 43.2969C199.188 45.6641 200.641 49.1445 200.641 53.7383L193.961 56.9023H193.609V53.7383C193.609 50.8086 192.836 48.6992 191.289 47.4102C189.766 46.1211 188.008 45.4766 186.016 45.4766C183.977 45.4766 182.16 46.1914 180.566 47.6211C179.184 48.8633 178.492 50.9023 178.492 53.7383V78.2422L171.812 81.4062H171.461ZM222.262 81.4062C217.832 81.1016 214.422 79.9766 212.031 78.0312C209.125 75.6406 207.672 72.1602 207.672 67.5898V51.207L222.262 39.9219C226.691 40.2266 230.102 41.3516 232.492 43.2969C235.398 45.6641 236.852 49.1445 236.852 53.7383V70.1211L222.262 81.4062ZM222.262 75.8516C224.488 75.8516 226.305 75.1367 227.711 73.707C229.117 72.2773 229.82 70.2383 229.82 67.5898V53.7383C229.82 50.8086 229.047 48.6992 227.5 47.4102C225.977 46.1211 224.23 45.4766 222.262 45.4766C220.035 45.4766 218.219 46.1914 216.812 47.6211C215.406 49.0508 214.703 51.0898 214.703 53.7383V67.5898C214.703 70.5195 215.465 72.6289 216.988 73.918C218.512 75.207 220.27 75.8516 222.262 75.8516ZM249.156 81.4062V28.6719L255.836 25.5078H256.188V67.5195C259.445 66.418 262.527 64.9414 265.434 63.0898L260.055 55.3906L266.242 52.4375H266.594L271.023 58.8008C274.258 54.7227 275.875 47.0469 275.875 35.7734V28.6719L282.555 25.5078H282.906V35.6328C282.906 47.2578 279.719 56.082 273.344 62.1055L284.805 78.4883L278.617 81.4062H278.266L267.754 66.3945C264.168 68.4102 260.312 69.957 256.188 71.0352V78.2422L249.508 81.4062H249.156ZM290.078 81.4062V51.207L304.668 39.9219C309.098 40.2266 312.508 41.3516 314.898 43.2969C317.805 45.6641 319.258 49.1445 319.258 53.7383L312.578 56.9023H312.227V53.7383C312.227 50.8086 311.453 48.6992 309.906 47.4102C308.383 46.1211 306.625 45.4766 304.633 45.4766C302.594 45.4766 300.777 46.1914 299.184 47.6211C297.801 48.8633 297.109 50.9023 297.109 53.7383V78.2422L290.43 81.4062H290.078ZM340.879 81.4062C336.449 81.1016 333.039 79.9766 330.648 78.0312C327.742 75.6406 326.289 72.1602 326.289 67.5898V51.207L340.879 39.9219C345.309 40.2266 348.719 41.3516 351.109 43.2969C354.016 45.6641 355.469 49.1445 355.469 53.7383L333.848 71.2109C334.27 72.3828 334.855 73.2852 335.605 73.918C337.129 75.207 338.863 75.8516 340.809 75.8516C342.848 75.8516 344.699 75.1367 346.363 73.707C347.746 72.5117 348.438 70.4727 348.438 67.5898L355.117 64.4258H355.469V70.1211L340.879 81.4062ZM333.32 66.043L348.438 53.7734C348.438 50.8203 347.664 48.6992 346.117 47.4102C344.594 46.1211 342.848 45.4766 340.879 45.4766C338.605 45.4766 336.777 46.1914 335.395 47.6211C334.012 49.0508 333.32 51.0898 333.32 53.7383V66.043ZM378.848 75.8516C381.309 75.8516 383.137 75.1367 384.332 73.707C385.715 72.043 386.406 69.9688 386.406 67.4844C386.406 64.625 385.645 62.5156 384.121 61.1562C382.668 59.8672 380.91 59.2227 378.848 59.2227C376.387 59.2227 374.559 59.9375 373.363 61.3672C371.98 63.0312 371.289 65.0703 371.289 67.4844C371.289 70.4141 372.051 72.5586 373.574 73.918C375.051 75.207 376.809 75.8516 378.848 75.8516ZM378.848 81.4062C374.488 81.1016 371.078 79.9766 368.617 78.0312C365.711 75.7344 364.258 72.2539 364.258 67.5898V64.9531L378.848 53.668C381.801 53.8789 384.32 54.4648 386.406 55.4258V53.7383C386.406 50.9023 385.645 48.793 384.121 47.4102C382.668 46.1211 380.91 45.4766 378.848 45.4766C376.551 45.4766 374.723 46.1914 373.363 47.6211L371.43 45.6523L378.848 39.9219C383.277 40.2266 386.688 41.3516 389.078 43.2969C391.984 45.6641 393.438 49.1445 393.438 53.7383V78.2422L386.758 81.4062H386.406V75.5352L378.848 81.4062ZM408.379 81.4062V45.8984H398.887V45.5469L400.891 41.3281H408.379V28.6719L415.059 25.5078H415.41V41.3281H424.902V41.6797L422.898 45.8984H415.41V78.2422L408.73 81.4062H408.379ZM432.109 81.4062V43.0859L438.789 39.9219H439.141V78.2422L432.461 81.4062H432.109ZM439.141 25.5078V33.5234L432.461 36.6875H432.109V28.6719L438.789 25.5078H439.141ZM459.918 81.4062L446.348 42.8047L452.43 39.9219H452.781L464.066 72.3008L475.316 39.9219H475.668L479.289 41.6445L466.352 78.5234L460.27 81.4062H459.918ZM496.551 81.4062C492.121 81.1016 488.711 79.9766 486.32 78.0312C483.414 75.6406 481.961 72.1602 481.961 67.5898V51.207L496.551 39.9219C500.98 40.2266 504.391 41.3516 506.781 43.2969C509.688 45.6641 511.141 49.1445 511.141 53.7383L489.52 71.2109C489.941 72.3828 490.527 73.2852 491.277 73.918C492.801 75.207 494.535 75.8516 496.48 75.8516C498.52 75.8516 500.371 75.1367 502.035 73.707C503.418 72.5117 504.109 70.4727 504.109 67.5898L510.789 64.4258H511.141V70.1211L496.551 81.4062ZM488.992 66.043L504.109 53.7734C504.109 50.8203 503.336 48.6992 501.789 47.4102C500.266 46.1211 498.52 45.4766 496.551 45.4766C494.277 45.4766 492.449 46.1914 491.066 47.6211C489.684 49.0508 488.992 51.0898 488.992 53.7383V66.043ZM535.223 81.4062C530.793 81.1016 527.383 79.9766 524.992 78.0312C522.086 75.6641 520.633 72.1836 520.633 67.5898L527.312 64.4258H527.664V67.5898C527.664 70.4258 528.426 72.5352 529.949 73.918C531.402 75.207 533.16 75.8516 535.223 75.8516C537.473 75.8516 539.289 75.1367 540.672 73.707C542.078 72.2773 542.781 70.25 542.781 67.625C542.781 64.9766 541.996 63.1602 540.426 62.1758C539.066 61.332 537.32 60.9102 535.188 60.9102C529.703 60.9102 525.883 59.6445 523.727 57.1133C522.648 55.8242 522.109 53.4805 522.109 50.082L535.223 39.9219C538.645 39.9922 541.516 41.0234 543.836 43.0156C545.711 44.6328 546.871 46.7422 547.316 49.3438L540.637 52.5078H540.285V51.4883C540.285 49.8008 539.934 48.5234 539.23 47.6562C538.059 46.2031 536.453 45.4766 534.414 45.4766C532.398 45.4766 530.887 46.1094 529.879 47.375C529.152 48.2891 528.789 49.4141 528.789 50.75C528.789 52.25 529.422 53.4453 530.688 54.3359C531.391 54.8281 532.891 55.0742 535.188 55.0742C540.227 55.0742 543.848 56.0469 546.051 57.9922C548.559 60.1953 549.812 64.2383 549.812 70.1211L535.223 81.4062Z" fill="white"/>
</svg>
